<svg width="800" height="800" viewBox="0 0 67733.32 67733.32" style="shape-rendering:geometricPrecision;text-rendering:geometricPrecision;image-rendering:optimizeQuality;fill-rule:evenodd;clip-rule:evenodd" version="1.1" xml:space="preserve" id="svg89" xmlns="http://www.w3.org/2000/svg">
    <defs id="defs4">
        <style type="text/css" id="style2">
            .fil3{fill:#484b60;fill-rule:nonzero}.fil11,.fil6,.fil8{fill:#80b6c6;fill-rule:nonzero}.fil11,.fil6{fill:#cc7587}.fil6{fill:#db9a3d}.fil10,.fil4,.fil5{fill:#df8c9a;fill-rule:nonzero}.fil4,.fil5{fill:#e1aa8c}.fil4{fill:#ffc15b}
        </style>
    </defs>
    <g id="Layer_x0020_1">
        <path id="rect6" style="fill:none" d="M0 0h67733.32v67733.32H0z"/>
        <g id="_2730830349696">
            <g id="_2730830347440">
                <g id="g28">
                    <path class="fil3" d="M41041.04 43798.93c272.68 14.04 482.32 246.59 468.19 519.26l-82.04 1588.5c-14.13 272.67-246.6 482.32-519.27 468.28-272.67-14.13-482.32-246.59-468.28-519.27l82.14-1588.58c14.13-272.67 246.59-482.32 519.26-468.19z" id="path18"/>
                    <path class="fil4" d="m40404.32 12991.52 4422.36 228.57c540.36 27.98 955.76 488.66 927.86 1029.02l-1371.06 26525.61-6355.33-328.54 1372.24-26549.43c27.26-527.15 476.79-932.49 1003.93-905.23z" id="path20"/>
                    <path class="fil5" id="polygon22" d="m40488.72 44788.29 499.8 25.81 499.88 25.9 2895.08-4065.29-461.76-592.88-1166.4 508.67-1568.75-650.04-1530.17 489.84-1106.54-626.13-521.71 542z"/>
                    <path class="fil6" id="polygon24" d="m42874.77 40696.65-238.98-12.49 1421.68-27503.91 238.99 12.49z"/>
                    <path class="fil6" id="polygon26" d="m39775.84 40536.64-238.98-12.5 1421.68-27503.91 238.99 12.5z"/>
                </g>
                <g id="g40">
                    <path class="fil3" d="M34311.7 9350.42c-272.13 22.28-510.84-180.3-533.12-452.43l-129.77-1585.33c-22.19-272.13 180.3-510.84 452.43-533.12 272.13-22.28 510.84 180.3 533.12 452.43l129.77 1585.42c22.19 272.13-180.3 510.75-452.43 533.03z" id="path30"/>
                    <path d="m39037.06 39799.94-4413.47 361.15c-539.28 44.19-1012.18-357.26-1056.37-896.54L31400.77 12792.1l6342.66-519.08 2168.34 26496.27c43.11 526.15-348.56 987.54-874.71 1030.65z" id="path32" style="fill:#aad1df;fill-rule:nonzero"/>
                    <path class="fil5" id="polygon34" d="m34727.64 8296.49-498.89 40.76-498.88 40.84-2329.09 4413.93 536.48 526.24 1088.51-659.18 1641.19 435.77 1451.48-688.88 1179.98 473.53 445.01-606.47z"/>
                    <path class="fil8" id="polygon36" d="m35112.97 40121.06-2246.31-27449.03 318.23-26.17 2246.3 27448.94z"/>
                    <path class="fil8" id="polygon38" d="m38205.64 39868.04-2246.31-27449.03 318.22-26.17 2246.32 27448.94z"/>
                </g>
                <g id="g58">
                    <path class="fil3" d="M44077.39 47722.58c-817.56-154.23-1401.85-876.98-1386-1708.76 128.23-6754.88 880.68-13667.69 2257.18-20738.35l6511.46 1228.34c-1280.6 6806.22-3101.55 13510.39-5463.06 20112.68-282.72 790.67-1094.4 1261.76-1919.58 1106.09z" id="path42"/>
                    <path id="polygon44" style="fill:#e2e8ed;fill-rule:nonzero" d="m47378.72 17560.22-2430.15 7715.26 6517.07 1229.42 524.25-8074.77z"/>
                    <g id="g56">
                        <path class="fil10" d="m51989.89 18430.13-4611.17-869.91 231.47-7974.62c1221.46-600.95 6100.59 297.85 7069.48 1333.66l-2689.78 7510.87z" id="path46"/>
                        <path class="fil11" id="polygon48" d="m48440.88 17748.67-317.59-36.13 626.76-5495.03 317.59 36.14z"/>
                        <path class="fil11" id="polygon50" d="m50282.49 15136.14-314.42-56.15 982.38-5494.39 314.51 56.15z"/>
                        <path class="fil11" id="polygon52" d="m50468.77 18151.75-310.71-75.53 1403.3-5780.1 310.71 75.53z"/>
                        <path class="fil11" id="polygon54" d="m51580.65 18371.99-305.09-95.45 2125.87-6809.03 305.09 95.44z"/>
                    </g>
                </g>
                <g id="g72">
                    <path class="fil4" d="M25754.62 28112.14c-335.07 0-632.01-241.43-691.06-582.11l-909.66-5292.17c-163.82-954.04 479.15-1863.89 1432.91-2027.98l569.71-97.62 107.94 629.57-569.43 97.62c-606.74 104.59-1015.8 683.26-911.57 1290.37l909.76 5291.9c5.89 33.69 41.47 54.88 71.99 50.53 33.78-5.88 56.51-38.39 50.9-71.99l-485.13-2820.73 629.57-108.58 485.12 2821c65.21 380.98-191.53 744.12-572.15 809.96-39.93 6.79-79.51 10.23-118.9 10.23z" id="path60"/>
                    <path class="fil4" d="M32794.49 44438.28c-279.11 47.99-544.35-139.46-592.35-418.57l-249.22-1449.57c-47.99-279.11 139.37-544.35 418.57-592.26 279.19-48.09 544.35 139.37 592.34 418.47l249.22 1449.49c48 279.19-139.37 544.44-418.56 592.44z" id="path62"/>
                    <path class="fil4" d="m30042.76 23188.64-1789.35 307.63c-625.31 107.49-1219.38-312.25-1326.87-937.47l-609.37-3544.66c-107.49-625.22 312.25-1219.28 937.56-1326.78l1789.35-307.63c625.31-107.49 1219.38 312.25 1326.78 937.56l609.46 3544.57c107.49 625.31-312.25 1219.28-937.56 1326.78z" id="path64"/>
                    <path class="fil3" d="m34468.82 37680.41-5516.4 948.33c-1873.48-5871.21-2944.25-11880.51-3212.21-18027.74-20.92-480.87 323.02-901.7 797.37-983.2l3860.07-663.71c472.72-81.23 935.21 201.31 1072.86 660.72 1764.08 5890.4 2763.58 11912.3 2998.31 18065.6z" id="path66"/>
                    <path class="fil3" d="m32234.74 38064.47-1041.24 179.03-2241.07 385.24c958.3 2852.42 3011.63 4096.8 3011.63 4096.8l1041.25-179.04s1616.66-2004.34 1470.49-4867.27l-2241.06 385.24z" id="path68"/>
                    <path class="fil4" d="M28563.66 37562.68c101.79 377.18 204.94 754.08 310.26 1130.54 6.88 24.81 31.51 40.39 56.96 36.04l5591.38-961.19c25.45-4.44 43.47-27.53 41.57-53.25-28.35-389.77-58.78-779.17-90.47-1168.3-2.45-29.34-29.61-50.44-58.59-45.46l-5811.08 999.04c-29.16 5.08-47.72 34.05-40.03 62.58z" id="path70"/>
                </g>
                <g id="g84">
                    <path class="fil10" d="M49666.87 59329.24c-2428.79 1474.48-19400.53 1473.67-22216 0-2503.78-1310.48-3834.27-24060.51-4098.16-29080.46-27.62-526.24 399.73-962.37 926.51-947.7 9241.63 1048.31 18460.17 1334.21 27653.07 773.65 555.22 15.57 991.62 480.32 971.79 1035.45-179.22 4994.32-1085.98 26913.2-3237.21 28219.06z" id="path74"/>
                    <path class="fil10" d="M26195.73 54663.83c-2491.55.27-6209.53-426.99-8995.67-2601.67-2140.54-1670.45-3363.63-4047.62-3635.22-7064.59-290.51-3227.25 514.38-5841.96 2392.93-7771.32 3529.63-3625.61 9541.2-3289.19 9794.76-3274.88l-197.41 3187.77c-48-3.08-4823.53-250.22-7317.44 2323.65-1209.68 1248.26-1697.61 2964.9-1492.04 5248.34 191.71 2127.41 980.3 3706.3 2410.95 4826.88 3388.8 2654.01 9190.64 1801.13 9248.78 1792.89l492 3155.61c-110.84 17.3-1176.72 177.32-2701.64 177.32z" id="path76"/>
                    <path d="M39618 52734.02S25677.09 40991.6 30324.03 37843.69c4647.03-3147.92 9793.67 4247.21 9793.67 4247.21s3797.5-6695.66 7495.11-4447.08C51310.42 39892.4 39618 52734.02 39618 52734.02z" id="path78" style="fill:#fff;fill-rule:nonzero"/>
                    <path class="fil11" id="polygon80" d="m23626.57 37213.94-214.26-3187.86 318.77-21.19 214.35 3187.86z"/>
                    <path class="fil11" id="polygon82" d="m25579.93 54690.09-534.12-3221.54 315.15-52.44 534.11 3221.54z"/>
                </g>
            </g>
        </g>
    </g>
</svg>
